<?xml version="1.0" standalone="no"?>
<!DOCTYPE svg PUBLIC "-//W3C//DTD SVG 20010904//EN"
 "http://www.w3.org/TR/2001/REC-SVG-20010904/DTD/svg10.dtd">
<svg version="1.0" xmlns="http://www.w3.org/2000/svg"
 width="225.000000pt" height="225.000000pt" viewBox="0 0 225.000000 225.000000"
 preserveAspectRatio="xMidYMid meet">

<g transform="translate(0.000000,225.000000) scale(0.100000,-0.100000)"
fill="#000000" stroke="none">
<path d="M0 1125 l0 -1125 1125 0 1125 0 0 1125 0 1125 -1125 0 -1125 0 0
-1125z m1292 632 c26 -12 60 -39 77 -60 31 -40 56 -123 50 -167 -4 -25 -5 -25
-111 -28 l-108 -3 0 36 0 35 -260 0 -260 0 0 -143 0 -142 -105 -105 -105 -105
0 268 c0 291 3 313 58 371 58 62 76 65 412 65 296 1 306 0 352 -22z m386 -349
l102 -102 -105 -106 -105 -105 0 53 0 52 -260 0 -260 0 0 -30 0 -30 -110 0
-110 0 0 33 c0 62 30 139 69 178 61 62 104 69 408 69 l263 0 0 45 c0 25 1 45
3 45 2 0 49 -46 105 -102z m-737 -358 l259 0 0 30 0 30 110 0 110 0 0 -33 c0
-62 -30 -139 -69 -178 -61 -62 -104 -69 -408 -69 l-263 0 0 -45 c0 -25 -1 -45
-3 -45 -2 0 -49 46 -105 102 l-102 102 102 103 103 104 3 -51 3 -50 260 0z
m829 -433 c-15 -51 -65 -106 -118 -128 -39 -17 -73 -19 -345 -19 -292 0 -304
1 -349 23 -26 12 -60 39 -77 60 -31 40 -56 123 -50 167 4 25 5 25 112 28 l107
3 0 -36 0 -35 260 0 260 0 0 132 0 133 103 103 102 102 3 -247 c2 -159 -1
-262 -8 -286z"/>
</g>
</svg>
