<?xml version="1.0" standalone="no"?>
<!DOCTYPE svg PUBLIC "-//W3C//DTD SVG 20010904//EN"
 "http://www.w3.org/TR/2001/REC-SVG-20010904/DTD/svg10.dtd">
<svg version="1.0" xmlns="http://www.w3.org/2000/svg"
 width="736.000000pt" height="736.000000pt" viewBox="0 0 736.000000 736.000000"
 preserveAspectRatio="xMidYMid meet">

<g transform="translate(0.000000,736.000000) scale(0.100000,-0.100000)"
fill="#000000" stroke="none">
<path d="M4309 4893 c-13 -16 -12 -17 4 -4 9 7 17 15 17 17 0 8 -8 3 -21 -13z"/>
<path d="M4270 4860 c-8 -4 -32 -15 -53 -25 -45 -22 -200 -181 -277 -284 -30
-40 -66 -79 -81 -87 -39 -20 -48 -17 -20 6 17 15 19 20 8 20 -9 0 -18 -4 -21
-9 -3 -5 -15 -11 -27 -14 -18 -5 -17 0 12 30 l34 36 -54 -37 c-30 -20 -56 -34
-59 -31 -3 2 7 28 22 57 l27 53 -33 -32 c-32 -31 -56 -44 -43 -24 3 5 1 12 -4
16 -6 3 -8 -5 -5 -20 7 -37 -7 -30 -40 21 -15 25 -30 43 -33 40 -2 -2 7 -22
21 -45 33 -52 33 -61 -1 -30 -16 14 -41 34 -58 44 -27 16 -25 13 13 -28 23
-26 42 -49 42 -53 0 -3 -30 11 -67 32 l-68 37 45 -41 45 -41 -50 18 c-27 11
-77 22 -110 26 -33 4 -71 12 -85 17 -16 6 -21 6 -15 0 6 -6 39 -20 75 -33 62
-21 96 -39 75 -39 -22 0 -113 28 -144 44 -18 10 -30 13 -27 7 5 -7 -2 -11 -16
-12 -20 -1 -18 -3 11 -15 46 -20 33 -27 -22 -13 -35 8 -55 22 -82 54 -88 108
-292 281 -374 317 -25 11 -54 25 -63 29 -25 13 -34 11 -20 -3 9 -9 8 -16 -7
-32 -29 -33 -42 -83 -48 -186 -6 -102 9 -313 32 -442 l14 -79 -32 -31 c-18
-17 -23 -24 -12 -17 20 13 20 13 2 -8 -10 -12 -33 -29 -50 -38 l-32 -16 38 5
c22 3 35 1 32 -5 -4 -5 -12 -9 -19 -9 -7 0 -21 -7 -32 -15 -18 -13 -17 -14 11
-6 17 5 38 12 48 16 32 13 17 -5 -21 -24 -42 -22 -73 -51 -53 -51 7 0 9 -5 5
-11 -3 -6 12 1 35 15 50 32 53 26 6 -15 -19 -17 -35 -35 -35 -39 0 -4 14 -13
32 -21 17 -7 26 -15 19 -17 -6 -2 -23 4 -38 13 -29 19 -32 17 -61 -49 -11 -26
-11 -28 5 -15 13 10 11 4 -6 -26 l-23 -40 25 30 c15 17 26 25 27 20 0 -6 -5
-16 -11 -22 -8 -8 -1 -14 27 -22 22 -6 47 -11 56 -11 9 0 20 -5 23 -10 4 -7
-2 -9 -17 -5 -105 24 -108 24 -108 4 0 -23 -4 -24 -37 -1 -20 12 -47 17 -99
17 -62 -1 -78 -5 -119 -30 -143 -89 -151 -214 -15 -234 30 -5 69 -16 85 -25
37 -19 72 -20 105 -1 14 8 40 14 59 15 24 0 42 9 68 35 l35 35 424 3 423 3 29
27 c26 25 30 26 42 12 7 -9 22 -20 32 -26 10 -6 152 -10 348 -10 181 0 336 -2
345 -5 8 -4 15 -13 15 -21 0 -27 56 -73 89 -73 17 0 45 -9 63 -20 39 -24 82
-25 122 -5 15 8 45 15 66 15 54 0 100 40 100 86 0 40 -21 87 -56 124 -13 14
-25 42 -28 63 -3 21 -9 44 -15 51 -6 7 -8 15 -5 18 3 4 -11 29 -30 57 -36 50
-47 76 -24 53 7 -7 16 -12 22 -12 6 0 5 5 -2 12 -7 7 -12 20 -12 29 0 10 -15
29 -32 43 -38 30 -35 32 18 11 l39 -16 -40 36 c-22 20 -53 43 -70 52 l-30 17
43 9 c41 8 50 27 12 27 -19 0 -117 89 -112 102 1 4 -2 8 -8 8 -6 0 -10 28 -10
65 0 260 -94 651 -150 625z m-185 -789 c160 -74 166 -311 11 -382 -84 -38
-196 -14 -244 51 l-22 30 35 -24 c132 -90 293 19 271 183 -3 24 -11 50 -17 57
-6 7 -8 18 -4 24 4 6 1 9 -7 8 -7 -2 -12 4 -10 12 2 8 0 12 -4 8 -4 -4 -19 1
-33 11 -14 10 -46 23 -71 29 l-45 10 50 1 c29 0 67 -7 90 -18z m-977 -26 c-26
-7 -62 -22 -80 -34 -33 -20 -33 -21 -7 -21 14 0 32 -6 41 -12 44 -36 18 -86
-47 -92 -48 -4 -53 -17 -30 -86 22 -67 67 -102 140 -108 45 -4 61 0 99 22 25
15 52 39 60 54 9 15 15 20 15 12 0 -29 -55 -94 -99 -116 -136 -70 -300 34
-300 191 0 39 40 123 73 153 32 30 91 51 142 51 l40 -1 -47 -13z m820 -51 c27
-19 29 -60 3 -74 -29 -15 -87 -12 -105 6 -35 34 -2 84 54 84 14 0 36 -7 48
-16z m585 -251 c-7 -2 -21 -2 -30 0 -10 3 -4 5 12 5 17 0 24 -2 18 -5z m-903
-38 c10 -12 9 -16 -3 -21 -9 -3 -19 -14 -22 -25 -4 -10 -11 -19 -17 -19 -18 0
-60 51 -54 66 7 19 80 18 96 -1z"/>
<path d="M3701 4564 c0 -11 3 -14 6 -6 3 7 2 16 -1 19 -3 4 -6 -2 -5 -13z"/>
<path d="M4661 3737 c2 -1 13 -9 24 -17 19 -14 19 -14 6 3 -7 9 -18 17 -24 17
-6 0 -8 -1 -6 -3z"/>
</g>
</svg>
